<mxfile host="app.diagrams.net" modified="2024-03-02T01:31:29.965Z" agent="Mozilla/5.0 (Windows NT 10.0; Win64; x64; rv:123.0) Gecko/20100101 Firefox/123.0" etag="7AvVHGj6MPk8J_A3Tezo" version="24.0.0" type="device">
  <diagram name="Page-1" id="2YBvvXClWsGukQMizWep">
    <mxGraphModel dx="880" dy="442" grid="1" gridSize="10" guides="1" tooltips="1" connect="1" arrows="1" fold="1" page="1" pageScale="1" pageWidth="850" pageHeight="1100" math="0" shadow="0">
      <root>
        <mxCell id="0" />
        <mxCell id="1" parent="0" />
        <mxCell id="aM9ryv3xv72pqoxQDRHE-1" value="gc: GameController" style="shape=umlLifeline;perimeter=lifelinePerimeter;whiteSpace=wrap;html=1;container=0;dropTarget=0;collapsible=0;recursiveResize=0;outlineConnect=0;portConstraint=eastwest;newEdgeStyle={&quot;edgeStyle&quot;:&quot;elbowEdgeStyle&quot;,&quot;elbow&quot;:&quot;vertical&quot;,&quot;curved&quot;:0,&quot;rounded&quot;:0};" parent="1" vertex="1">
          <mxGeometry x="240" y="30" width="120" height="510" as="geometry" />
        </mxCell>
        <mxCell id="aM9ryv3xv72pqoxQDRHE-3" value="newRound()" style="html=1;verticalAlign=bottom;startArrow=none;endArrow=block;startSize=8;edgeStyle=elbowEdgeStyle;elbow=vertical;curved=0;rounded=0;startFill=0;" parent="aM9ryv3xv72pqoxQDRHE-1" target="aM9ryv3xv72pqoxQDRHE-2" edge="1">
          <mxGeometry relative="1" as="geometry">
            <mxPoint x="-30" y="90" as="sourcePoint" />
          </mxGeometry>
        </mxCell>
        <mxCell id="aM9ryv3xv72pqoxQDRHE-2" value="" style="html=1;points=[];perimeter=orthogonalPerimeter;outlineConnect=0;targetShapes=umlLifeline;portConstraint=eastwest;newEdgeStyle={&quot;edgeStyle&quot;:&quot;elbowEdgeStyle&quot;,&quot;elbow&quot;:&quot;vertical&quot;,&quot;curved&quot;:0,&quot;rounded&quot;:0};" parent="aM9ryv3xv72pqoxQDRHE-1" vertex="1">
          <mxGeometry x="52.5" y="80" width="10" height="430" as="geometry" />
        </mxCell>
        <mxCell id="2yJOdj8yXWbdt8cp31r1-15" value="" style="html=1;points=[[0,0,0,0,5],[0,1,0,0,-5],[1,0,0,0,5],[1,1,0,0,-5]];perimeter=orthogonalPerimeter;outlineConnect=0;targetShapes=umlLifeline;portConstraint=eastwest;newEdgeStyle={&quot;curved&quot;:0,&quot;rounded&quot;:0};" parent="aM9ryv3xv72pqoxQDRHE-1" vertex="1">
          <mxGeometry x="57.5" y="140" width="10" height="40" as="geometry" />
        </mxCell>
        <mxCell id="aM9ryv3xv72pqoxQDRHE-5" value="c: Character" style="shape=umlLifeline;perimeter=lifelinePerimeter;whiteSpace=wrap;html=1;container=0;dropTarget=0;collapsible=0;recursiveResize=0;outlineConnect=0;portConstraint=eastwest;newEdgeStyle={&quot;edgeStyle&quot;:&quot;elbowEdgeStyle&quot;,&quot;elbow&quot;:&quot;vertical&quot;,&quot;curved&quot;:0,&quot;rounded&quot;:0};" parent="1" vertex="1">
          <mxGeometry x="440" y="30" width="100" height="510" as="geometry" />
        </mxCell>
        <mxCell id="aM9ryv3xv72pqoxQDRHE-6" value="" style="html=1;points=[];perimeter=orthogonalPerimeter;outlineConnect=0;targetShapes=umlLifeline;portConstraint=eastwest;newEdgeStyle={&quot;edgeStyle&quot;:&quot;elbowEdgeStyle&quot;,&quot;elbow&quot;:&quot;vertical&quot;,&quot;curved&quot;:0,&quot;rounded&quot;:0};" parent="aM9ryv3xv72pqoxQDRHE-5" vertex="1">
          <mxGeometry x="45" y="180" width="10" height="280" as="geometry" />
        </mxCell>
        <mxCell id="aM9ryv3xv72pqoxQDRHE-7" value="setRoledlDice(d)" style="html=1;verticalAlign=bottom;endArrow=block;edgeStyle=elbowEdgeStyle;elbow=vertical;curved=0;rounded=0;" parent="1" edge="1">
          <mxGeometry relative="1" as="geometry">
            <mxPoint x="303.75" y="230" as="sourcePoint" />
            <Array as="points">
              <mxPoint x="441.25" y="230" />
              <mxPoint x="411.25" y="160" />
              <mxPoint x="351.25" y="140" />
              <mxPoint x="441.25" y="100" />
              <mxPoint x="421.25" y="90" />
              <mxPoint x="401.25" y="60" />
            </Array>
            <mxPoint x="486.25" y="230" as="targetPoint" />
          </mxGeometry>
        </mxCell>
        <mxCell id="aM9ryv3xv72pqoxQDRHE-8" value="" style="html=1;verticalAlign=bottom;endArrow=open;dashed=1;endSize=8;edgeStyle=elbowEdgeStyle;elbow=vertical;curved=0;rounded=0;" parent="1" edge="1">
          <mxGeometry relative="1" as="geometry">
            <mxPoint x="302.5" y="489.99999999999994" as="targetPoint" />
            <Array as="points">
              <mxPoint x="425" y="490" />
              <mxPoint x="415" y="500" />
            </Array>
            <mxPoint x="490" y="490" as="sourcePoint" />
          </mxGeometry>
        </mxCell>
        <mxCell id="2yJOdj8yXWbdt8cp31r1-7" value="opt" style="shape=umlFrame;whiteSpace=wrap;html=1;pointerEvents=0;" parent="1" vertex="1">
          <mxGeometry x="170" y="135" width="560" height="365" as="geometry" />
        </mxCell>
        <mxCell id="2yJOdj8yXWbdt8cp31r1-8" value="[for all Characters]" style="text;html=1;align=center;verticalAlign=middle;resizable=0;points=[];autosize=1;strokeColor=none;fillColor=none;" parent="1" vertex="1">
          <mxGeometry x="170" y="160" width="120" height="30" as="geometry" />
        </mxCell>
        <mxCell id="2yJOdj8yXWbdt8cp31r1-9" value="opt" style="shape=umlFrame;whiteSpace=wrap;html=1;pointerEvents=0;" parent="1" vertex="1">
          <mxGeometry x="10" y="90" width="770" height="420" as="geometry" />
        </mxCell>
        <mxCell id="2yJOdj8yXWbdt8cp31r1-10" value="[remainingRiunds!=0]" style="text;html=1;align=center;verticalAlign=middle;resizable=0;points=[];autosize=1;strokeColor=none;fillColor=none;" parent="1" vertex="1">
          <mxGeometry x="10" y="130" width="140" height="30" as="geometry" />
        </mxCell>
        <mxCell id="2yJOdj8yXWbdt8cp31r1-11" value="opt" style="shape=umlFrame;whiteSpace=wrap;html=1;pointerEvents=0;" parent="1" vertex="1">
          <mxGeometry x="320" y="330" width="390" height="140" as="geometry" />
        </mxCell>
        <mxCell id="2yJOdj8yXWbdt8cp31r1-12" value="[remainingActions&amp;gt;0]" style="text;html=1;align=center;verticalAlign=middle;resizable=0;points=[];autosize=1;strokeColor=none;fillColor=none;" parent="1" vertex="1">
          <mxGeometry x="320" y="360" width="140" height="30" as="geometry" />
        </mxCell>
        <mxCell id="2yJOdj8yXWbdt8cp31r1-13" value="" style="html=1;points=[[0,0,0,0,5],[0,1,0,0,-5],[1,0,0,0,5],[1,1,0,0,-5]];perimeter=orthogonalPerimeter;outlineConnect=0;targetShapes=umlLifeline;portConstraint=eastwest;newEdgeStyle={&quot;curved&quot;:0,&quot;rounded&quot;:0};" parent="1" vertex="1">
          <mxGeometry x="490" y="360" width="10" height="40" as="geometry" />
        </mxCell>
        <mxCell id="2yJOdj8yXWbdt8cp31r1-14" value="action(remainingActions)" style="html=1;align=left;spacingLeft=2;endArrow=block;rounded=0;edgeStyle=orthogonalEdgeStyle;curved=0;rounded=0;" parent="1" target="2yJOdj8yXWbdt8cp31r1-13" edge="1">
          <mxGeometry relative="1" as="geometry">
            <mxPoint x="495" y="340" as="sourcePoint" />
            <Array as="points">
              <mxPoint x="525" y="370" />
            </Array>
          </mxGeometry>
        </mxCell>
        <mxCell id="2yJOdj8yXWbdt8cp31r1-16" value="d: rollDice()" style="html=1;align=left;spacingLeft=2;endArrow=block;rounded=0;edgeStyle=orthogonalEdgeStyle;curved=0;rounded=0;" parent="1" target="2yJOdj8yXWbdt8cp31r1-15" edge="1">
          <mxGeometry relative="1" as="geometry">
            <mxPoint x="295" y="145" as="sourcePoint" />
            <Array as="points">
              <mxPoint x="325" y="145" />
              <mxPoint x="325" y="175" />
            </Array>
          </mxGeometry>
        </mxCell>
        <mxCell id="sq4mNYfaVh_52Vyje4cC-1" value="e: onEvent" style="shape=umlLifeline;perimeter=lifelinePerimeter;whiteSpace=wrap;html=1;container=1;dropTarget=0;collapsible=0;recursiveResize=0;outlineConnect=0;portConstraint=eastwest;newEdgeStyle={&quot;curved&quot;:0,&quot;rounded&quot;:0};" parent="1" vertex="1">
          <mxGeometry x="610" y="30" width="100" height="500" as="geometry" />
        </mxCell>
        <mxCell id="sq4mNYfaVh_52Vyje4cC-2" value="" style="html=1;points=[[0,0,0,0,5],[0,1,0,0,-5],[1,0,0,0,5],[1,1,0,0,-5]];perimeter=orthogonalPerimeter;outlineConnect=0;targetShapes=umlLifeline;portConstraint=eastwest;newEdgeStyle={&quot;curved&quot;:0,&quot;rounded&quot;:0};" parent="sq4mNYfaVh_52Vyje4cC-1" vertex="1">
          <mxGeometry x="45" y="220" width="10" height="60" as="geometry" />
        </mxCell>
        <mxCell id="sq4mNYfaVh_52Vyje4cC-5" value="onRoundStart()" style="html=1;verticalAlign=bottom;endArrow=block;curved=0;rounded=0;" parent="1" source="aM9ryv3xv72pqoxQDRHE-6" target="sq4mNYfaVh_52Vyje4cC-2" edge="1">
          <mxGeometry width="80" relative="1" as="geometry">
            <mxPoint x="380" y="290" as="sourcePoint" />
            <mxPoint x="460" y="290" as="targetPoint" />
            <Array as="points">
              <mxPoint x="570" y="260" />
            </Array>
          </mxGeometry>
        </mxCell>
        <mxCell id="sq4mNYfaVh_52Vyje4cC-6" value="" style="html=1;verticalAlign=bottom;endArrow=open;dashed=1;endSize=8;curved=0;rounded=0;exitX=0.5;exitY=0.667;exitDx=0;exitDy=0;exitPerimeter=0;" parent="1" source="sq4mNYfaVh_52Vyje4cC-2" target="aM9ryv3xv72pqoxQDRHE-6" edge="1">
          <mxGeometry relative="1" as="geometry">
            <mxPoint x="660" y="299.5" as="sourcePoint" />
            <mxPoint x="580" y="299.5" as="targetPoint" />
          </mxGeometry>
        </mxCell>
      </root>
    </mxGraphModel>
  </diagram>
</mxfile>
